ffmpeg started on 2025-05-29 at 16:22:09
Report written to "D:\Convert\FFMetrics\reports\ssim_report-6.txt"
Log level: 32
Command line:
ffmpeg -hide_banner -nostdin -i "G:\\\xc0\xed\xe8\xec\xe5\\\xce\xed\xe3\xee\xe8\xed\xe3\xe8\\!_36_\xce\xf1\xe5\xed\xfc_2024\\JamClub\\\xd2\xfb - \xe3\xee\xf0\xed\xe8\xf7\xed\xe0\xff\\JamClub_Kimi_wa_Meido_sama_04_1080p_HEVC.mkv" -i "G:\\\xc0\xed\xe8\xec\xe5\\\xce\xed\xe3\xee\xe8\xed\xe3\xe8\\!_36_\xce\xf1\xe5\xed\xfc_2024\\JamClub\\\xd2\xfb - \xe3\xee\xf0\xed\xe8\xf7\xed\xe0\xff\\JamClub_Kimi_wa_Meido_sama_04_1080p.mp4" -lavfi "[0:v]settb=AVTB,setpts=PTS-STARTPTS,format=pix_fmts=yuv420p10,fps=24000/1001,scale=1920:1080:flags=bicubic[main];[1:v]settb=AVTB,setpts=PTS-STARTPTS,format=pix_fmts=yuv420p,fps=24000/1001,scale=1920:1080:flags=bicubic[ref];[main][ref]ssim=eof_action=endall:stats_file='D\\:/Convert/FFMetrics/logs/ssim_logfile-6.txt'" -f null -
Input #0, matroska,webm, from 'G:\Аниме\Онгоинги\!_36_Осень_2024\JamClub\Ты - горничная\JamClub_Kimi_wa_Meido_sama_04_1080p_HEVC.mkv':
  Metadata:
    COMPATIBLE_BRANDS: isomiso2avc1mp41
    MAJOR_BRAND     : isom
    MINOR_VERSION   : 512
    ENCODER         : Lavf61.7.100
  Duration: 00:23:22.26, start: -0.001000, bitrate: 2007 kb/s
  Stream #0:0: Video: hevc (Main 10), yuv420p10le(tv, bt709, progressive), 1920x1080 [SAR 1:1 DAR 16:9], 23.98 fps, 23.98 tbr, 1k tbn (default)
      Metadata:
        HANDLER_NAME    : VideoHandler
        VENDOR_ID       : [0][0][0][0]
        ENCODER         : Lavc61.19.100 libx265
        BPS             : 1809906
        DURATION        : 00:23:22.192708333
        NUMBER_OF_FRAMES: 33619
        NUMBER_OF_BYTES : 317229481
        _STATISTICS_WRITING_APP: mkvpropedit v66.0.0 ('Josie') 64-bit
        _STATISTICS_WRITING_DATE_UTC: 2025-05-29 10:00:17
        _STATISTICS_TAGS: BPS DURATION NUMBER_OF_FRAMES NUMBER_OF_BYTES
  Stream #0:1(eng): Audio: aac (LC), 48000 Hz, stereo, fltp (default)
      Metadata:
        HANDLER_NAME    : SoundHandler
        VENDOR_ID       : [0][0][0][0]
        ENCODER         : Lavc61.19.100 aac
        BPS             : 193275
        DURATION        : 00:23:22.221000000
        NUMBER_OF_FRAMES: 65730
        NUMBER_OF_BYTES : 33876954
        _STATISTICS_WRITING_APP: mkvpropedit v66.0.0 ('Josie') 64-bit
        _STATISTICS_WRITING_DATE_UTC: 2025-05-29 10:00:17
        _STATISTICS_TAGS: BPS DURATION NUMBER_OF_FRAMES NUMBER_OF_BYTES
Input #1, mov,mp4,m4a,3gp,3g2,mj2, from 'G:\Аниме\Онгоинги\!_36_Осень_2024\JamClub\Ты - горничная\JamClub_Kimi_wa_Meido_sama_04_1080p.mp4':
  Metadata:
    major_brand     : isom
    minor_version   : 512
    compatible_brands: isomiso2avc1mp41
    encoder         : Lavf60.16.100
  Duration: 00:23:22.24, start: 0.000000, bitrate: 4309 kb/s
  Stream #1:0[0x1](und): Video: h264 (High) (avc1 / 0x31637661), yuv420p(progressive), 1920x1080 [SAR 1:1 DAR 16:9], 4111 kb/s, 23.98 fps, 23.98 tbr, 90k tbn (default)
      Metadata:
        handler_name    : VideoHandler
        vendor_id       : [0][0][0][0]
  Stream #1:1[0x2](eng): Audio: aac (LC) (mp4a / 0x6134706D), 48000 Hz, stereo, fltp, 191 kb/s (default)
      Metadata:
        handler_name    : SoundHandler
        vendor_id       : [0][0][0][0]
Stream mapping:
  Stream #0:0 (hevc) -> settb:default
  Stream #1:0 (h264) -> settb:default
  ssim:default -> Stream #0:0 (wrapped_avframe)
  Stream #0:1 -> #0:1 (aac (native) -> pcm_s16le (native))
Output #0, null, to 'pipe:':
  Metadata:
    COMPATIBLE_BRANDS: isomiso2avc1mp41
    MAJOR_BRAND     : isom
    MINOR_VERSION   : 512
    encoder         : Lavf61.7.100
  Stream #0:0: Video: wrapped_avframe, yuv420p10le(tv, bt709, progressive), 1920x1080 [SAR 1:1 DAR 16:9], q=2-31, 200 kb/s, 23.98 fps, 23.98 tbn
      Metadata:
        encoder         : Lavc61.19.100 wrapped_avframe
  Stream #0:1(eng): Audio: pcm_s16le, 48000 Hz, stereo, s16, 1536 kb/s (default)
      Metadata:
        HANDLER_NAME    : SoundHandler
        VENDOR_ID       : [0][0][0][0]
        _STATISTICS_TAGS: BPS DURATION NUMBER_OF_FRAMES NUMBER_OF_BYTES
        BPS             : 193275
        DURATION        : 00:23:22.221000000
        NUMBER_OF_FRAMES: 65730
        NUMBER_OF_BYTES : 33876954
        _STATISTICS_WRITING_APP: mkvpropedit v66.0.0 ('Josie') 64-bit
        _STATISTICS_WRITING_DATE_UTC: 2025-05-29 10:00:17
        encoder         : Lavc61.19.100 pcm_s16le
frame=  106 fps=0.0 q=-0.0 size=N/A time=00:00:04.42 bitrate=N/A speed=8.62x    frame=  266 fps=260 q=-0.0 size=N/A time=00:00:11.09 bitrate=N/A speed=10.9x    frame=  467 fps=302 q=-0.0 size=N/A time=00:00:19.47 bitrate=N/A speed=12.6x    frame=  716 fps=349 q=-0.0 size=N/A time=00:00:29.86 bitrate=N/A speed=14.5x    frame=  988 fps=383 q=-0.0 size=N/A time=00:00:41.20 bitrate=N/A speed=  16x    frame= 1245 fps=403 q=-0.0 size=N/A time=00:00:51.92 bitrate=N/A speed=16.8x    frame= 1524 fps=423 q=-0.0 size=N/A time=00:01:03.56 bitrate=N/A speed=17.6x    frame= 1791 fps=435 q=-0.0 size=N/A time=00:01:14.69 bitrate=N/A speed=18.1x    frame= 2042 fps=440 q=-0.0 size=N/A time=00:01:25.16 bitrate=N/A speed=18.4x    frame= 2261 fps=439 q=-0.0 size=N/A time=00:01:34.30 bitrate=N/A speed=18.3x    frame= 2493 fps=439 q=-0.0 size=N/A time=00:01:43.97 bitrate=N/A speed=18.3x    frame= 2727 fps=442 q=-0.0 size=N/A time=00:01:53.73 bitrate=N/A speed=18.4x    frame= 2962 fps=442 q=-0.0 size=N/A time=00:02:03.54 bitrate=N/A speed=18.4x    frame= 3191 fps=442 q=-0.0 size=N/A time=00:02:13.09 bitrate=N/A speed=18.4x    frame= 3415 fps=442 q=-0.0 size=N/A time=00:02:22.43 bitrate=N/A speed=18.4x    frame= 3646 fps=442 q=-0.0 size=N/A time=00:02:32.06 bitrate=N/A speed=18.5x    frame= 3882 fps=443 q=-0.0 size=N/A time=00:02:41.91 bitrate=N/A speed=18.5x    frame= 4101 fps=442 q=-0.0 size=N/A time=00:02:51.04 bitrate=N/A speed=18.5x    frame= 4358 fps=445 q=-0.0 size=N/A time=00:03:01.76 bitrate=N/A speed=18.6x    frame= 4600 fps=446 q=-0.0 size=N/A time=00:03:11.85 bitrate=N/A speed=18.6x    frame= 4854 fps=448 q=-0.0 size=N/A time=00:03:22.45 bitrate=N/A speed=18.7x    frame= 5071 fps=447 q=-0.0 size=N/A time=00:03:31.50 bitrate=N/A speed=18.7x    frame= 5273 fps=445 q=-0.0 size=N/A time=00:03:39.92 bitrate=N/A speed=18.6x    frame= 5461 fps=442 q=-0.0 size=N/A time=00:03:47.76 bitrate=N/A speed=18.4x    frame= 5640 fps=438 q=-0.0 size=N/A time=00:03:55.23 bitrate=N/A speed=18.3x    frame= 5742 fps=429 q=-0.0 size=N/A time=00:03:59.48 bitrate=N/A speed=17.9x    frame= 5846 fps=420 q=-0.0 size=N/A time=00:04:03.82 bitrate=N/A speed=17.5x    frame= 5974 fps=414 q=-0.0 size=N/A time=00:04:09.16 bitrate=N/A speed=17.3x    frame= 6103 fps=408 q=-0.0 size=N/A time=00:04:14.54 bitrate=N/A speed=  17x    frame= 6217 fps=402 q=-0.0 size=N/A time=00:04:19.30 bitrate=N/A speed=16.8x    frame= 6415 fps=401 q=-0.0 size=N/A time=00:04:27.55 bitrate=N/A speed=16.7x    frame= 6567 fps=398 q=-0.0 size=N/A time=00:04:33.89 bitrate=N/A speed=16.6x    frame= 6795 fps=399 q=-0.0 size=N/A time=00:04:43.40 bitrate=N/A speed=16.7x    frame= 6957 fps=397 q=-0.0 size=N/A time=00:04:50.16 bitrate=N/A speed=16.6x    frame= 7191 fps=399 q=-0.0 size=N/A time=00:04:59.92 bitrate=N/A speed=16.6x    frame= 7399 fps=399 q=-0.0 size=N/A time=00:05:08.59 bitrate=N/A speed=16.6x    frame= 7680 fps=403 q=-0.0 size=N/A time=00:05:20.32 bitrate=N/A speed=16.8x    frame= 7954 fps=406 q=-0.0 size=N/A time=00:05:31.74 bitrate=N/A speed=16.9x    frame= 8216 fps=409 q=-0.0 size=N/A time=00:05:42.67 bitrate=N/A speed=  17x    frame= 8466 fps=411 q=-0.0 size=N/A time=00:05:53.10 bitrate=N/A speed=17.1x    frame= 8713 fps=412 q=-0.0 size=N/A time=00:06:03.40 bitrate=N/A speed=17.2x    frame= 8986 fps=415 q=-0.0 size=N/A time=00:06:14.79 bitrate=N/A speed=17.3x    frame= 9219 fps=416 q=-0.0 size=N/A time=00:06:24.50 bitrate=N/A speed=17.4x    frame= 9467 fps=417 q=-0.0 size=N/A time=00:06:34.85 bitrate=N/A speed=17.4x    frame= 9682 fps=417 q=-0.0 size=N/A time=00:06:43.82 bitrate=N/A speed=17.4x    frame= 9897 fps=417 q=-0.0 size=N/A time=00:06:52.78 bitrate=N/A speed=17.4x    frame=10124 fps=418 q=-0.0 size=N/A time=00:07:02.25 bitrate=N/A speed=17.4x    frame=10351 fps=418 q=-0.0 size=N/A time=00:07:11.72 bitrate=N/A speed=17.4x    frame=10577 fps=419 q=-0.0 size=N/A time=00:07:21.14 bitrate=N/A speed=17.5x    frame=10784 fps=418 q=-0.0 size=N/A time=00:07:29.78 bitrate=N/A speed=17.4x    frame=10958 fps=417 q=-0.0 size=N/A time=00:07:37.03 bitrate=N/A speed=17.4x    frame=11135 fps=415 q=-0.0 size=N/A time=00:07:44.42 bitrate=N/A speed=17.3x    frame=11327 fps=414 q=-0.0 size=N/A time=00:07:52.43 bitrate=N/A speed=17.3x    frame=11549 fps=415 q=-0.0 size=N/A time=00:08:01.68 bitrate=N/A speed=17.3x    frame=11728 fps=414 q=-0.0 size=N/A time=00:08:09.15 bitrate=N/A speed=17.3x    frame=11906 fps=412 q=-0.0 size=N/A time=00:08:16.57 bitrate=N/A speed=17.2x    frame=12134 fps=413 q=-0.0 size=N/A time=00:08:26.08 bitrate=N/A speed=17.2x    frame=12368 fps=414 q=-0.0 size=N/A time=00:08:35.84 bitrate=N/A speed=17.3x    frame=12608 fps=414 q=-0.0 size=N/A time=00:08:45.85 bitrate=N/A speed=17.3x    frame=12848 fps=415 q=-0.0 size=N/A time=00:08:55.86 bitrate=N/A speed=17.3x    frame=13104 fps=417 q=-0.0 size=N/A time=00:09:06.54 bitrate=N/A speed=17.4x    frame=13355 fps=418 q=-0.0 size=N/A time=00:09:17.01 bitrate=N/A speed=17.4x    frame=13599 fps=419 q=-0.0 size=N/A time=00:09:27.19 bitrate=N/A speed=17.5x    frame=13843 fps=419 q=-0.0 size=N/A time=00:09:37.36 bitrate=N/A speed=17.5x    frame=14080 fps=420 q=-0.0 size=N/A time=00:09:47.25 bitrate=N/A speed=17.5x    frame=14329 fps=421 q=-0.0 size=N/A time=00:09:57.63 bitrate=N/A speed=17.6x    frame=14568 fps=422 q=-0.0 size=N/A time=00:10:07.60 bitrate=N/A speed=17.6x    frame=14846 fps=423 q=-0.0 size=N/A time=00:10:19.20 bitrate=N/A speed=17.7x    frame=15063 fps=424 q=-0.0 size=N/A time=00:10:28.25 bitrate=N/A speed=17.7x    frame=15342 fps=425 q=-0.0 size=N/A time=00:10:39.88 bitrate=N/A speed=17.7x    frame=15545 fps=425 q=-0.0 size=N/A time=00:10:48.35 bitrate=N/A speed=17.7x    frame=15784 fps=425 q=-0.0 size=N/A time=00:10:58.32 bitrate=N/A speed=17.7x    frame=16021 fps=426 q=-0.0 size=N/A time=00:11:08.20 bitrate=N/A speed=17.8x    frame=16254 fps=426 q=-0.0 size=N/A time=00:11:17.92 bitrate=N/A speed=17.8x    frame=16506 fps=427 q=-0.0 size=N/A time=00:11:28.43 bitrate=N/A speed=17.8x    frame=16741 fps=427 q=-0.0 size=N/A time=00:11:38.23 bitrate=N/A speed=17.8x    frame=16888 fps=425 q=-0.0 size=N/A time=00:11:44.41 bitrate=N/A speed=17.7x    frame=17096 fps=425 q=-0.0 size=N/A time=00:11:53.04 bitrate=N/A speed=17.7x    frame=17374 fps=427 q=-0.0 size=N/A time=00:12:04.64 bitrate=N/A speed=17.8x    frame=17621 fps=427 q=-0.0 size=N/A time=00:12:14.94 bitrate=N/A speed=17.8x    frame=17866 fps=428 q=-0.0 size=N/A time=00:12:25.16 bitrate=N/A speed=17.8x    frame=18135 fps=429 q=-0.0 size=N/A time=00:12:36.38 bitrate=N/A speed=17.9x    frame=18409 fps=430 q=-0.0 size=N/A time=00:12:47.80 bitrate=N/A speed=17.9x    frame=18667 fps=431 q=-0.0 size=N/A time=00:12:58.56 bitrate=N/A speed=  18x    frame=18932 fps=432 q=-0.0 size=N/A time=00:13:09.62 bitrate=N/A speed=  18x    frame=19212 fps=433 q=-0.0 size=N/A time=00:13:21.30 bitrate=N/A speed=18.1x    frame=19455 fps=434 q=-0.0 size=N/A time=00:13:31.43 bitrate=N/A speed=18.1x    frame=19729 fps=435 q=-0.0 size=N/A time=00:13:42.86 bitrate=N/A speed=18.1x    frame=19988 fps=435 q=-0.0 size=N/A time=00:13:53.66 bitrate=N/A speed=18.2x    frame=20250 fps=436 q=-0.0 size=N/A time=00:14:04.59 bitrate=N/A speed=18.2x    frame=20509 fps=437 q=-0.0 size=N/A time=00:14:15.39 bitrate=N/A speed=18.2x    frame=20763 fps=438 q=-0.0 size=N/A time=00:14:25.99 bitrate=N/A speed=18.3x    frame=21034 fps=439 q=-0.0 size=N/A time=00:14:37.29 bitrate=N/A speed=18.3x    frame=21310 fps=440 q=-0.0 size=N/A time=00:14:48.80 bitrate=N/A speed=18.3x    frame=21573 fps=440 q=-0.0 size=N/A time=00:14:59.77 bitrate=N/A speed=18.4x    frame=21830 fps=441 q=-0.0 size=N/A time=00:15:10.49 bitrate=N/A speed=18.4x    frame=22095 fps=442 q=-0.0 size=N/A time=00:15:21.54 bitrate=N/A speed=18.4x    frame=22337 fps=442 q=-0.0 size=N/A time=00:15:31.63 bitrate=N/A speed=18.4x    frame=22605 fps=443 q=-0.0 size=N/A time=00:15:42.81 bitrate=N/A speed=18.5x    frame=22787 fps=442 q=-0.0 size=N/A time=00:15:50.40 bitrate=N/A speed=18.4x    frame=23018 fps=442 q=-0.0 size=N/A time=00:16:00.04 bitrate=N/A speed=18.4x    frame=23254 fps=442 q=-0.0 size=N/A time=00:16:09.88 bitrate=N/A speed=18.4x    frame=23528 fps=443 q=-0.0 size=N/A time=00:16:21.31 bitrate=N/A speed=18.5x    frame=23799 fps=444 q=-0.0 size=N/A time=00:16:32.61 bitrate=N/A speed=18.5x    frame=24043 fps=444 q=-0.0 size=N/A time=00:16:42.79 bitrate=N/A speed=18.5x    frame=24315 fps=445 q=-0.0 size=N/A time=00:16:54.13 bitrate=N/A speed=18.6x    frame=24573 fps=445 q=-0.0 size=N/A time=00:17:04.89 bitrate=N/A speed=18.6x    frame=24839 fps=446 q=-0.0 size=N/A time=00:17:15.99 bitrate=N/A speed=18.6x    frame=25087 fps=446 q=-0.0 size=N/A time=00:17:26.33 bitrate=N/A speed=18.6x    frame=25349 fps=447 q=-0.0 size=N/A time=00:17:37.26 bitrate=N/A speed=18.6x    frame=25584 fps=447 q=-0.0 size=N/A time=00:17:47.06 bitrate=N/A speed=18.6x    frame=25844 fps=447 q=-0.0 size=N/A time=00:17:57.91 bitrate=N/A speed=18.7x    frame=26100 fps=448 q=-0.0 size=N/A time=00:18:08.58 bitrate=N/A speed=18.7x    frame=26325 fps=448 q=-0.0 size=N/A time=00:18:17.97 bitrate=N/A speed=18.7x    frame=26604 fps=448 q=-0.0 size=N/A time=00:18:29.60 bitrate=N/A speed=18.7x    frame=26870 fps=449 q=-0.0 size=N/A time=00:18:40.70 bitrate=N/A speed=18.7x    frame=27129 fps=450 q=-0.0 size=N/A time=00:18:51.50 bitrate=N/A speed=18.7x    frame=27400 fps=450 q=-0.0 size=N/A time=00:19:02.80 bitrate=N/A speed=18.8x    frame=27654 fps=451 q=-0.0 size=N/A time=00:19:13.40 bitrate=N/A speed=18.8x    frame=27914 fps=451 q=-0.0 size=N/A time=00:19:24.24 bitrate=N/A speed=18.8x    frame=28163 fps=451 q=-0.0 size=N/A time=00:19:34.63 bitrate=N/A speed=18.8x    frame=28406 fps=451 q=-0.0 size=N/A time=00:19:44.76 bitrate=N/A speed=18.8x    frame=28643 fps=451 q=-0.0 size=N/A time=00:19:54.65 bitrate=N/A speed=18.8x    frame=28875 fps=451 q=-0.0 size=N/A time=00:20:04.32 bitrate=N/A speed=18.8x    frame=29123 fps=452 q=-0.0 size=N/A time=00:20:14.67 bitrate=N/A speed=18.8x    frame=29372 fps=452 q=-0.0 size=N/A time=00:20:25.05 bitrate=N/A speed=18.8x    frame=29641 fps=452 q=-0.0 size=N/A time=00:20:36.27 bitrate=N/A speed=18.9x    frame=29890 fps=453 q=-0.0 size=N/A time=00:20:46.66 bitrate=N/A speed=18.9x    frame=30168 fps=453 q=-0.0 size=N/A time=00:20:58.25 bitrate=N/A speed=18.9x    frame=30442 fps=454 q=-0.0 size=N/A time=00:21:09.68 bitrate=N/A speed=18.9x    frame=30697 fps=454 q=-0.0 size=N/A time=00:21:20.32 bitrate=N/A speed=18.9x    frame=30955 fps=455 q=-0.0 size=N/A time=00:21:31.08 bitrate=N/A speed=  19x    frame=31200 fps=455 q=-0.0 size=N/A time=00:21:41.30 bitrate=N/A speed=  19x    frame=31403 fps=454 q=-0.0 size=N/A time=00:21:49.76 bitrate=N/A speed=  19x    frame=31542 fps=453 q=-0.0 size=N/A time=00:21:55.56 bitrate=N/A speed=18.9x    frame=31644 fps=451 q=-0.0 size=N/A time=00:21:59.81 bitrate=N/A speed=18.8x    frame=31755 fps=449 q=-0.0 size=N/A time=00:22:04.44 bitrate=N/A speed=18.7x    frame=31892 fps=448 q=-0.0 size=N/A time=00:22:10.16 bitrate=N/A speed=18.7x    frame=32039 fps=447 q=-0.0 size=N/A time=00:22:16.29 bitrate=N/A speed=18.6x    frame=32188 fps=446 q=-0.0 size=N/A time=00:22:22.50 bitrate=N/A speed=18.6x    frame=32329 fps=444 q=-0.0 size=N/A time=00:22:28.38 bitrate=N/A speed=18.5x    frame=32444 fps=443 q=-0.0 size=N/A time=00:22:33.18 bitrate=N/A speed=18.5x    frame=32550 fps=441 q=-0.0 size=N/A time=00:22:37.60 bitrate=N/A speed=18.4x    frame=32682 fps=440 q=-0.0 size=N/A time=00:22:43.11 bitrate=N/A speed=18.4x    frame=32822 fps=439 q=-0.0 size=N/A time=00:22:48.95 bitrate=N/A speed=18.3x    frame=32980 fps=438 q=-0.0 size=N/A time=00:22:55.54 bitrate=N/A speed=18.3x    frame=33104 fps=437 q=-0.0 size=N/A time=00:23:00.71 bitrate=N/A speed=18.2x    frame=33256 fps=436 q=-0.0 size=N/A time=00:23:07.05 bitrate=N/A speed=18.2x    frame=33360 fps=434 q=-0.0 size=N/A time=00:23:11.39 bitrate=N/A speed=18.1x    frame=33463 fps=433 q=-0.0 size=N/A time=00:23:15.68 bitrate=N/A speed=  18x    frame=33574 fps=431 q=-0.0 size=N/A time=00:23:20.31 bitrate=N/A speed=  18x    [Parsed_ssim_10 @ 0000029bc945bd00] SSIM Y:0.994607 (22.681623) U:0.995127 (23.121594) V:0.995461 (23.430249) All:0.994836 (22.869995)
[out#0/null @ 0000029bc3105f00] video:14446KiB audio:262920KiB subtitle:0KiB other streams:0KiB global headers:0KiB muxing overhead: unknown
frame=33619 fps=430 q=-0.0 Lsize=N/A time=00:23:22.19 bitrate=N/A speed=17.9x    
